<svg width="24" height="24" viewBox="0 0 24 24" fill="none" xmlns="http://www.w3.org/2000/svg">
<path fill-rule="evenodd" clip-rule="evenodd" d="M0 0H24V24H12H0V0Z" fill="white"/>
<path fill-rule="evenodd" clip-rule="evenodd" d="M12.9933 0.883379C12.9355 0.38604 12.5128 0 12 0C11.4477 0 11 0.447715 11 1V3H7V1L6.99327 0.883379C6.93551 0.38604 6.51284 0 6 0C5.44772 0 5 0.447715 5 1V3C2.23858 3 0 5.23858 0 8V9V19C0 21.7614 2.23858 24 5 24H19C21.7614 24 24 21.7614 24 19V9V8C24 5.23858 21.7614 3 19 3V1L18.9933 0.883379C18.9355 0.38604 18.5128 0 18 0C17.4477 0 17 0.447715 17 1V3H13V1L12.9933 0.883379ZM18 5H12H6H5C3.34315 5 2 6.34315 2 8H22C22 6.4467 20.8195 5.16912 19.3067 5.01549C19.2635 5.0111 19.22 5.00763 19.1763 5.00509L19 5H18ZM22 19V10H2V19C2 20.6569 3.34315 22 5 22H19C20.6569 22 22 20.6569 22 19ZM15 15C15.5523 15 16 15.4477 16 16C16 16.5128 15.614 16.9355 15.1166 16.9933L15 17H10.8686L11.8321 18.4453C12.1165 18.872 12.0298 19.4378 11.648 19.7618L11.5547 19.8321C11.128 20.1165 10.5622 20.0298 10.2382 19.648L10.1679 19.5547L8.17552 16.5661C8.06537 16.4059 8.00067 16.2121 8 16.0032L8 16C8 15.7899 8.06481 15.5949 8.17554 15.4339L10.1679 12.4453C10.4743 11.9858 11.0952 11.8616 11.5547 12.1679C11.9814 12.4524 12.119 13.0081 11.8911 13.4539L11.8321 13.5547L10.8686 15H15Z" fill="#34CAC6"/>
</svg>
