<svg width="24" height="24" viewBox="0 0 24 24" fill="none" xmlns="http://www.w3.org/2000/svg">
<path fill-rule="evenodd" clip-rule="evenodd" d="M0 0H24V24H12H0V0Z" fill="white"/>
<path fill-rule="evenodd" clip-rule="evenodd" d="M12.9933 0.883379C12.9355 0.38604 12.5128 0 12 0C11.4477 0 11 0.447715 11 1V3H7V1L6.99327 0.883379C6.93551 0.38604 6.51284 0 6 0C5.44772 0 5 0.447715 5 1V3C2.23858 3 0 5.23858 0 8V9V19C0 21.7614 2.23858 24 5 24H19C21.7614 24 24 21.7614 24 19V9V8C24 5.23858 21.7614 3 19 3V1L18.9933 0.883379C18.9355 0.38604 18.5128 0 18 0C17.4477 0 17 0.447715 17 1V3H13V1L12.9933 0.883379ZM18 5H12H6H5C3.34315 5 2 6.34315 2 8H22C22 6.4467 20.8195 5.16912 19.3067 5.01549C19.2635 5.0111 19.22 5.00763 19.1763 5.00509L19 5H18ZM22 19V10H2V19C2 20.6569 3.34315 22 5 22H19C20.6569 22 22 20.6569 22 19ZM15.8294 16.5588C15.9128 16.4353 15.9693 16.2922 15.9906 16.1378C16.0033 16.0463 16.0033 15.9535 15.9906 15.862C15.9692 15.7076 15.9127 15.5645 15.8293 15.4411L13.8322 12.4453C13.5258 11.9858 12.9049 11.8616 12.4454 12.1679C12.0187 12.4524 11.8812 13.0081 12.109 13.4539L12.1681 13.5547L13.1315 15H9L8.88338 15.0067C8.38604 15.0645 8 15.4872 8 16C8 16.5523 8.44771 17 9 17H13.1315L12.1681 18.4453C11.8836 18.872 11.9703 19.4378 12.3521 19.7618L12.4454 19.8321C12.8721 20.1165 13.4379 20.0298 13.7619 19.648L13.8322 19.5547L15.8294 16.5588Z" fill="#34CAC6"/>
</svg>
