<svg width="42" height="42" viewBox="0 0 42 42" fill="none" xmlns="http://www.w3.org/2000/svg">
<path fill-rule="evenodd" clip-rule="evenodd" d="M1.6129 0.209705L1.70711 0.292893L5.057 3.642L18.4314 3.00592C19.8152 2.94002 21.1648 3.42643 22.1866 4.35166L22.3742 4.53025L40.4698 22.6258C42.4501 24.6061 42.5083 27.7806 40.6445 29.8312L40.4698 30.0145L30.0145 40.4698C28.0341 42.4501 24.8596 42.5083 22.809 40.6445L22.6258 40.4698L4.53025 22.3742C3.55062 21.3946 3.00271 20.0688 3.00001 18.6904L3.00592 18.4314L3.642 5.057L0.292893 1.70711C-0.0976311 1.31658 -0.0976311 0.683418 0.292893 0.292893C0.653377 -0.0675907 1.22061 -0.0953203 1.6129 0.209705ZM18.7354 5.00048L18.5265 5.00366L6.969 5.554L11.8358 10.4199C13.1044 9.73382 14.7074 9.88848 15.8253 10.8839L15.9749 11.0251C17.3417 12.392 17.3417 14.608 15.9749 15.9749C14.608 17.3417 12.392 17.3417 11.0251 15.9749C9.90431 14.8541 9.70257 13.1622 10.4199 11.8358L5.554 6.969L5.00366 18.5265C4.96709 19.2944 5.20605 20.0452 5.66963 20.6472L5.80159 20.8076L5.94446 20.96L24.04 39.0555C25.2526 40.2682 27.1908 40.3131 28.4572 39.1903L28.6002 39.0555L39.0555 28.6002C40.2682 27.3876 40.3131 25.4494 39.1903 24.1831L39.0555 24.04L20.96 5.94446C20.367 5.35147 19.5685 5.01478 18.7354 5.00048ZM24.6771 18.8319L24.6508 18.7181C24.5103 18.2375 24.0288 17.928 23.5232 18.0142C22.9788 18.107 22.6127 18.6236 22.7055 19.1681L24.8738 31.8855L24.9001 31.9993C25.0406 32.4799 25.5221 32.7894 26.0277 32.7032C26.5721 32.6104 26.9382 32.0938 26.8454 31.5493L24.6771 18.8319ZM17.5951 24.276C18.7038 23.0447 20.6007 22.9453 21.8319 24.054C23.0632 25.1626 23.1626 27.0595 22.054 28.2908C20.9453 29.5221 19.0484 29.6215 17.8172 28.5129C16.5859 27.4042 16.4865 25.5073 17.5951 24.276ZM31.6439 22.1236C30.4126 21.015 28.5157 21.1144 27.407 22.3457C26.2984 23.5769 26.3978 25.4738 27.6291 26.5825C28.8604 27.6911 30.7572 27.5917 31.8659 26.3604C32.9746 25.1292 32.8751 23.2323 31.6439 22.1236ZM20.4937 25.5403C20.0833 25.1707 19.451 25.2039 19.0814 25.6143C18.7119 26.0247 18.745 26.657 19.1554 27.0266C19.5658 27.3961 20.1981 27.363 20.5677 26.9526C20.9372 26.5421 20.9041 25.9098 20.4937 25.5403ZM28.8933 23.6839C29.2629 23.2735 29.8952 23.2404 30.3056 23.6099C30.716 23.9795 30.7492 24.6117 30.3796 25.0222C30.0101 25.4326 29.3778 25.4657 28.9673 25.0962C28.5569 24.7266 28.5238 24.0943 28.8933 23.6839Z" fill="#34CAC6"/>
</svg>
