<svg width="43" height="42" viewBox="0 0 38 42" fill="none" xmlns="http://www.w3.org/2000/svg">
<path fill-rule="evenodd" clip-rule="evenodd" d="M19.3238 0.0538637C19.072 -0.0323182 18.7941 -0.0150818 18.5528 0.105573L0.552786 9.10557L0.444602 9.16839C0.169088 9.35231 0 9.66331 0 10C0 27.0452 6.2327 37.7793 18.6825 41.9482C18.8885 42.0173 19.1115 42.0173 19.3175 41.9482C31.7673 37.7793 38 27.0452 38 10C38 9.62123 37.786 9.27496 37.4472 9.10557L19.4472 0.105573L19.3238 0.0538637ZM2.003 10.616L19 2.117L35.996 10.616L35.9915 11.0741L35.9806 11.6102C35.6162 26.5556 30.1098 35.8754 19.4483 39.7833L19 39.942L18.5517 39.7833C7.7633 35.8288 2.25345 26.3329 2.00854 11.0741L2.003 10.616ZM19 13C23.4183 13 27 16.5817 27 21C27 25.4183 23.4183 29 19 29C14.5817 29 11 25.4183 11 21C11 16.5817 14.5817 13 19 13ZM21.1161 17.5516L21.1744 17.4504C21.449 17.0317 21.9999 16.8762 22.4583 17.1062C22.9167 17.3361 23.1214 17.8707 22.95 18.3411L22.9037 18.4484L19.8938 24.4484L19.8346 24.551C19.5559 24.9748 18.9989 25.1222 18.5471 24.8917L18.4449 24.8318L15.4482 22.8318L15.3549 22.7614C14.9733 22.4373 14.8869 21.8714 15.1716 21.4449C15.4562 21.0183 16.012 20.8811 16.4577 21.1091L16.5584 21.1682L18.613 22.54L21.1161 17.5516Z" fill="#34CAC6"/>
</svg>
