<svg width="37" height="42" viewBox="0 0 37 42" fill="none" xmlns="http://www.w3.org/2000/svg">
<path fill-rule="evenodd" clip-rule="evenodd" d="M17 0C19.6888 0 21.8818 2.12231 21.9954 4.78311L22 5V11H31.5C34.1888 11 36.3818 13.1223 36.4954 15.7831L36.5 16V37C36.5 39.6888 34.3777 41.8818 31.7169 41.9954L31.5 42H5C2.31125 42 0.118182 39.8777 0.00461951 37.2169L0 37V5C0 2.31125 2.12231 0.118182 4.78311 0.00461951L5 0H17ZM31.5 13H22V40H31.5C33.0977 40 34.4037 38.7511 34.4949 37.1763L34.5 37V16C34.5 14.4023 33.2511 13.0963 31.6763 13.0051L31.5 13ZM5 2H17L17.1763 2.00509L17.3499 2.02018C18.8419 2.19348 20 3.46149 20 5V40H5L4.82373 39.9949C3.24892 39.9037 2 38.5977 2 37V5L2.00509 4.82373C2.09634 3.24892 3.40232 2 5 2ZM16 23C16.5523 23 17 23.4477 17 24V25C17 25.5523 16.5523 26 16 26H6C5.44772 26 5 25.5523 5 25V24C5 23.4477 5.44772 23 6 23H16ZM32 24C32 23.4477 31.5523 23 31 23H26C25.4477 23 25 23.4477 25 24V25C25 25.5523 25.4477 26 26 26H31C31.5523 26 32 25.5523 32 25V24ZM16 17C16.5523 17 17 17.4477 17 18V19C17 19.5523 16.5523 20 16 20H6C5.44772 20 5 19.5523 5 19V18C5 17.4477 5.44772 17 6 17H16ZM32 18C32 17.4477 31.5523 17 31 17H26C25.4477 17 25 17.4477 25 18V19C25 19.5523 25.4477 20 26 20H31C31.5523 20 32 19.5523 32 19V18ZM16 11C16.5523 11 17 11.4477 17 12V13C17 13.5523 16.5523 14 16 14H6C5.44772 14 5 13.5523 5 13V12C5 11.4477 5.44772 11 6 11H16ZM17 6C17 5.44772 16.5523 5 16 5H6C5.44772 5 5 5.44772 5 6V7C5 7.55228 5.44772 8 6 8H16C16.5523 8 17 7.55228 17 7V6Z" fill="#34CAC6"/>
</svg>
