<svg width="24" height="24" viewBox="0 0 24 24" fill="none" xmlns="http://www.w3.org/2000/svg">
<path fill-rule="evenodd" clip-rule="evenodd" d="M0 0H24V24H12H0V0Z" fill="white"/>
<path fill-rule="evenodd" clip-rule="evenodd" d="M12 0C6.473 0 2 4.55584 2 10.1667C2 13.6844 4.7627 17.8436 10.2193 22.7629L10.9628 23.4233C11.0893 23.5341 11.2172 23.6453 11.3465 23.7569C11.7219 24.081 12.2781 24.081 12.6535 23.7569L13.0372 23.4233L13.7807 22.7629C19.2373 17.8436 22 13.6844 22 10.1667C22 4.55584 17.527 0 12 0ZM12 2C16.4141 2 20 5.65228 20 10.1667L19.9959 10.3637C19.9014 12.6803 18.152 15.6176 14.711 19.1125L14.1046 19.717C13.5854 20.2254 13.0316 20.745 12.4432 21.2758L12 21.67L11.9141 21.5956C11.1913 20.9533 10.5185 20.327 9.89542 19.717L9.28896 19.1125C5.74964 15.5178 4 12.5129 4 10.1667C4 5.65228 7.58587 2 12 2ZM12 6C9.79086 6 8 7.79086 8 10C8 12.2091 9.79086 14 12 14C14.2091 14 16 12.2091 16 10C16 7.79086 14.2091 6 12 6ZM12 8C13.1046 8 14 8.89543 14 10C14 11.1046 13.1046 12 12 12C10.8954 12 10 11.1046 10 10C10 8.89543 10.8954 8 12 8Z" fill="#34CAC6"/>
</svg>
