<svg width="24" height="24" viewBox="0 0 24 24" fill="none" xmlns="http://www.w3.org/2000/svg">
<path fill-rule="evenodd" clip-rule="evenodd" d="M0 0H24V24H12H0V0Z" fill="white"/>
<path fill-rule="evenodd" clip-rule="evenodd" d="M12 0C8.6863 0 6.00001 2.68629 6.00001 6C6.00001 7.59862 6.6252 9.05121 7.64442 10.1266C4.28952 10.7237 1.59055 13.374 1.01361 16.8356L0.789878 18.178C0.744602 18.4497 0.721848 18.7246 0.721848 19C0.721848 21.7614 2.96042 24 5.72185 24H18.2782C18.5536 24 18.8285 23.9772 19.1002 23.932C21.824 23.478 23.6641 20.9019 23.2101 18.178L22.9864 16.8356C22.4095 13.374 19.7105 10.7237 16.3556 10.1266C17.3748 9.05121 18 7.59862 18 6C18 2.68629 15.3137 0 12 0ZM12 10C14.2091 10 16 8.20914 16 6C16 3.79086 14.2091 2 12 2C9.79087 2 8.00001 3.79086 8.00001 6C8.00001 8.20914 9.79087 10 12 10ZM12 12H9.08277C6.06152 12 3.48309 14.1843 2.9864 17.1644L2.76267 18.5068C2.7355 18.6698 2.72185 18.8348 2.72185 19C2.72185 20.6569 4.06499 22 5.72185 22H18.2782C18.4434 22 18.6084 21.9863 18.7714 21.9592C20.4057 21.6868 21.5097 20.1411 21.2373 18.5068L21.0136 17.1644C20.5169 14.1843 17.9385 12 14.9172 12H12Z" fill="#34CAC6"/>
</svg>
