<svg width="24" height="24" viewBox="0 0 24 24" fill="none" xmlns="http://www.w3.org/2000/svg">
<path fill-rule="evenodd" clip-rule="evenodd" d="M0 10.5C0 4.70101 4.70101 0 10.5 0C16.299 0 21 4.70101 21 10.5C21 16.299 16.299 21 10.5 21C4.70101 21 0 16.299 0 10.5ZM19 10.5C19 5.80558 15.1944 2 10.5 2C5.80558 2 2 5.80558 2 10.5C2 15.1944 5.80558 19 10.5 19C15.1944 19 19 15.1944 19 10.5Z" fill="white"/>
<path d="M16.6977 16.781C17.0558 16.4181 17.6228 16.3866 18.0172 16.689L18.1119 16.7716L23.7024 22.2883C24.0955 22.6762 24.0997 23.3094 23.7118 23.7025C23.3537 24.0653 22.7867 24.0968 22.3924 23.7944L22.2976 23.7119L16.7071 18.1952C16.314 17.8073 16.3098 17.1741 16.6977 16.781Z" fill="white"/>
</svg>
